<?xml version="1.0" encoding="UTF-8"?>
<svg id="Layer_1" xmlns="http://www.w3.org/2000/svg" version="1.1" viewBox="0 0 152 180">
  <!-- Generator: Adobe Illustrator 29.8.1, SVG Export Plug-In . SVG Version: 2.1.1 Build 2)  -->
  <defs>
    <style>
      .st0 {
        fill: #80bc00;
        stroke: #fff;
        stroke-miterlimit: 10;
        stroke-width: 2px;
      }
    </style>
  </defs>
  <path class="st0" d="M141.01,101.04c-3.94-4.96-5.52-11.83-4.36-18.88,0-.03,0-.06.01-.09.72-4.96.81-10.04.26-15.11-.22-2.08-1.86-3.68-3.89-3.92v-13.18c0-2.44-1.98-4.43-4.43-4.43h-17.57c-2.44,0-4.43,1.98-4.43,4.43v13.14h-34.94v-18.82c0-2.44-1.98-4.43-4.43-4.43h-23.24c-2.44,0-4.43,1.98-4.43,4.43v18.82h-15.83c-2.26,0-4.15,1.7-4.4,3.94-.24,2.17-.36,4.38-.36,6.57,0,13.59,4.73,26.87,13.31,37.38,5.38,6.59,8.17,14.65,7.87,22.7-.19,4.94-1.26,9.66-3.19,14.02-1.17,2.48.47,5.65,3.18,6.13,1.14.14,57.95,11.8,59.1,11.77,2.47.06,4.64-2.23,4.42-4.71-.34-5.43.82-8.89,1.71-10.68h8.25c9.81,0,18.37-6.97,20.37-16.57.37-.33,1.74-11.19,2.63-11.17,4.04-2.99,8.22-6.09,8.69-11.16.31-3.33-1.1-6.67-4.31-10.19h0ZM115.47,54.29h8.72v8.72h-8.72v-8.72ZM48.43,48.62h14.39v14.39h-14.39v-14.39ZM136.52,110.4c-.54,2.72-7.83,5.24-8.58,8.83l-2.6,12.53c-1.14,5.52-6.07,9.52-11.7,9.52h-10.65c-1.24,0-2.41.51-3.25,1.42-.48.52-4.06,4.65-4.83,13l-47.93-9.62c1.19-3.89,1.88-7.97,2.04-12.16.39-10.21-3.11-20.38-9.86-28.63-7.3-8.94-11.32-20.23-11.32-31.79,0-.55,0-1.1.03-1.66h100.54c.1,2.99-.07,5.97-.49,8.9-1.57,9.57.72,19.02,6.29,25.94,1.5,1.56,2.46,3.3,2.31,3.71h0ZM136.52,110.4"/>
  <path class="st0" d="M84.49,40.9h17.57c2.44,0,4.43-1.98,4.43-4.43v-17.57c0-2.44-1.98-4.43-4.43-4.43h-17.57c-2.44,0-4.43,1.98-4.43,4.43v17.57c0,2.44,1.98,4.43,4.43,4.43h0ZM88.91,23.33h8.72v8.72h-8.72v-8.72ZM88.91,23.33"/>
  <path class="st0" d="M33.05,36.47v-17.57c0-2.44-1.98-4.43-4.43-4.43H11.06c-2.44,0-4.43,1.98-4.43,4.43v17.57c0,2.44,1.98,4.43,4.43,4.43h17.57c2.44,0,4.43-1.98,4.43-4.43h0ZM24.2,32.05h-8.72v-8.72h8.72v8.72ZM24.2,32.05"/>
  <path class="st0" d="M51.29,24.96c.59,3.23,4.64,4.67,7.15,2.56,2.72-2.19,1.83-6.68-1.52-7.66-3.11-1.01-6.32,1.9-5.62,5.1h0ZM51.29,24.96"/>
  <path class="st0" d="M93.34,52.31c-.89-3.15-5.09-4.2-7.36-1.85-2.49,2.44-1.16,6.83,2.27,7.47,3.2.7,6.11-2.51,5.1-5.62h0ZM93.34,52.31"/>
  <path class="st0" d="M124.27,28.65c.58,3.23,4.65,4.68,7.14,2.56,2.72-2.18,1.83-6.69-1.52-7.65-3.11-1.02-6.33,1.9-5.62,5.1h0ZM124.27,28.65"/>
</svg>