<?xml version="1.0" encoding="UTF-8"?>
<svg id="Layer_1" xmlns="http://www.w3.org/2000/svg" viewBox="0 0 152 180">
  <defs>
    <style>
      .cls-1 {
        stroke: #fff;
      }

      .cls-1, .cls-2 {
        fill: #fff;
        stroke-miterlimit: 10;
      }

      .cls-2 {
        stroke: #80bc00;
        stroke-width: 2px;
      }
    </style>
  </defs>
  <path class="cls-2" d="M135.44,101.68c-3.07-4.25-6.54-9.07-4.91-19.51v-.05c1.77-12.23-.35-25.05-6.15-37.05-5.19-10.74-14.06-19.43-24.98-24.47-20.15-9.29-41.77-8.17-59.33,3.07-17.11,10.95-27.33,29.6-27.33,49.9,0,13.61,4.73,26.89,13.33,37.42,5.38,6.59,8.18,14.66,7.88,22.72-.19,4.94-1.26,9.67-3.19,14.04-1.17,2.49.47,5.66,3.18,6.13,1.15.14,58.01,11.81,59.15,11.78,2.47.06,4.64-2.23,4.42-4.71-.34-5.44.82-8.9,1.71-10.69h8.26c9.82,0,18.39-6.98,20.39-16.59l2.24-10.81c5.72-4.07,8.36-7.28,9-10.87.74-4.18-1.5-7.29-3.67-10.3h0ZM123.65,116.55c-.96.65-1.62,1.64-1.86,2.77l-2.6,12.54c-1.15,5.52-6.07,9.53-11.71,9.53h-10.66c-1.23,0-2.41.52-3.25,1.42-.48.52-4.07,4.66-4.83,13.01l-47.97-9.62c1.19-3.9,1.88-7.97,2.04-12.17.39-10.22-3.12-20.39-9.87-28.66-7.3-8.94-11.33-20.24-11.33-31.81,0-17.26,8.69-33.12,23.24-42.44,14.96-9.58,33.5-10.48,50.85-2.48,9.06,4.18,16.42,11.38,20.71,20.28,5.02,10.4,6.88,21.43,5.36,31.9-2.19,14.02,3.03,21.25,6.48,26.04.83,1.15,2.22,3.08,2.13,3.57-.03.18-.5,1.91-6.73,6.12h0Z"/>
  <g>
    <path class="cls-1" d="M70.61,97.11c-.08.04-.17.08-.25.12-.14-.19-.25-.39-.41-.55-.75-.76-1.49-1.51-2.26-2.24-.4-.38-.94-.56-1.39-.26-.36.24-.75.71-.77,1.1-.03.4.28.92.59,1.24,1.5,1.57,3.05,3.08,4.59,4.62.93.92,1.54.92,2.47,0,1.52-1.51,3.04-3.03,4.55-4.55.15-.15.29-.3.41-.47.38-.55.32-1.27-.14-1.7-.45-.42-1.12-.48-1.65-.08-.31.23-.58.52-.86.8-.7.69-1.39,1.38-2.23,2.22v-.96c0-4.18,0-22.57,0-26.75,0-1.27-.43-1.89-1.32-1.88-.88,0-1.31.61-1.31,1.89,0,4.18,0,22.57,0,26.75v.73ZM51.15,89.2c-.06-.08-.11-.17-.17-.25.21-.14.45-.26.63-.43,2.96-2.95,8.54-8.53,11.49-11.48.19-.19.39-.4.55-.62.38-.55.32-1.2-.12-1.64-.44-.44-1.1-.52-1.64-.15-.23.15-3.05,2.98-3.25,3.17-2.97,2.97-5.94,5.93-8.9,8.91-.17.17-.23.44-.35.67-.1-.08-.2-.16-.3-.24,0-1.26.01-2.52,0-3.78-.01-.9-.55-1.48-1.31-1.47-.72,0-1.29.58-1.3,1.43-.03,2.35-.02,4.71,0,7.06,0,.79.39,1.36,1.09,1.38,2.58.06,5.16.06,7.74,0,.7-.01,1.16-.71,1.1-1.35-.07-.68-.57-1.14-1.3-1.19-.25-.02-.51,0-.76,0-1.06,0-2.11,0-3.17,0ZM94.76,87.13c-.06.02-.11.04-.17.06-2.13-2.14-4.27-4.27-6.4-6.41-1.09-1.09-4.82-4.84-5.92-5.91-.64-.63-1.43-.65-1.97-.11-.54.54-.49,1.29.13,1.97.11.12.23.23.34.34,2.95,2.95,8.55,8.54,11.5,11.5.17.17.33.34.61.64-1.45,0-2.71,0-3.97,0-.61,0-1.08.22-1.34.8-.41.94.27,1.82,1.46,1.83,2.19.02,4.38,0,6.58,0,1.32,0,1.79-.47,1.79-1.8,0-2.12,0-4.24,0-6.37,0-.27-.02-.56-.09-.82-.17-.64-.64-.95-1.28-.95-.62,0-1.13.48-1.22,1.11-.04.27-.03.55-.03.83,0,1.1,0,2.2,0,3.3ZM49.08,45.59c.08-.05.16-.1.24-.15.15.21.27.44.45.62,2.95,2.96,5.9,5.91,8.86,8.86.21.21,21.84,21.83,22.09,22,.52.34,1.17.27,1.58-.17.44-.47.53-1.02.18-1.58-.16-.25-.37-.47-.58-.68-2.97-2.97-27.35-27.35-30.32-30.32-.17-.17-.33-.35-.59-.64,1.42,0,2.68,0,3.94,0,.6,0,1.09-.21,1.34-.79.42-.94-.26-1.84-1.44-1.84-2.19-.02-4.38,0-6.58,0-1.33,0-1.8.47-1.8,1.79,0,2.15,0,4.29,0,6.44,0,.3.03.61.13.88.23.66.98.99,1.64.74.62-.24.86-.72.86-1.36,0-1.26,0-2.52,0-3.79ZM92.88,43.52c-.29.31-.46.49-.63.66-3.03,3.04-28.92,28.91-31.95,31.95-.69.69-.75,1.45-.21,2.01.56.59,1.34.53,2.07-.16.12-.11.23-.23.34-.34,2.94-2.94,28.72-28.72,31.66-31.66.16-.16.34-.31.61-.56,0,1.41-.06,2.66.03,3.9.03.44.29,1.01.63,1.27.88.65,1.95-.08,1.96-1.31.02-2.26.02-4.52,0-6.78,0-1.1-.53-1.61-1.62-1.61-2.24-.01-4.48,0-6.72,0-.98,0-1.62.55-1.6,1.34.01.81.62,1.28,1.64,1.29,1.2,0,2.4,0,3.78,0ZM41.16,65.03c-.03-.07-.06-.14-.09-.21.92-.9,1.87-1.78,2.76-2.7.56-.58.52-1.37,0-1.86-.5-.48-1.26-.51-1.81.03-1.73,1.69-3.45,3.4-5.14,5.14-.58.59-.58,1.27-.01,1.86,1.69,1.73,3.4,3.45,5.14,5.14.58.57,1.35.53,1.86.01.5-.51.5-1.28-.06-1.87-.78-.82-1.59-1.6-2.39-2.41-.12-.12-.21-.26-.39-.49.38,0,.63,0,.88,0,4.15,0,11.99,0,16.14,0,.3,0,.6,0,.9-.06.65-.12,1-.55,1.05-1.19.05-.63-.36-1.17-.99-1.31-.31-.07-.64-.08-.96-.08-4.15,0-11.99,0-16.14,0h-.74Z"/>
    <path class="cls-1" d="M70.61,97.11v-.73c0-4.18,0-22.57,0-26.75,0-1.28.43-1.89,1.31-1.89.89,0,1.32.61,1.32,1.88,0,4.18,0,22.57,0,26.75v.96c.84-.84,1.53-1.53,2.23-2.22.28-.27.55-.56.86-.8.53-.39,1.2-.34,1.65.08.46.43.53,1.15.14,1.7-.12.17-.26.32-.41.47-1.52,1.52-3.03,3.04-4.55,4.55-.93.93-1.54.93-2.47,0-1.54-1.53-3.09-3.05-4.59-4.62-.31-.32-.62-.84-.59-1.24.03-.39.41-.86.77-1.1.45-.3.99-.12,1.39.26.76.74,1.51,1.49,2.26,2.24.16.16.28.37.41.55.08-.04.17-.08.25-.12Z"/>
    <path class="cls-1" d="M51.15,89.2c1.06,0,2.11,0,3.17,0,.25,0,.51,0,.76,0,.74.05,1.24.52,1.3,1.19.06.64-.4,1.34-1.1,1.35-2.58.05-5.16.05-7.74,0-.7-.02-1.08-.58-1.09-1.38-.02-2.35-.02-4.71,0-7.06,0-.85.58-1.42,1.3-1.43.76,0,1.3.57,1.31,1.47.02,1.26,0,2.52,0,3.78.1.08.2.16.3.24.11-.23.18-.5.35-.67,2.96-2.98,5.93-5.94,8.9-8.91.19-.19,3.02-3.02,3.25-3.17.54-.37,1.2-.3,1.64.15.44.45.49,1.09.12,1.64-.16.23-.35.43-.55.62-2.95,2.95-8.53,8.53-11.49,11.48-.18.18-.42.29-.63.43.06.08.11.17.17.25Z"/>
    <path class="cls-1" d="M94.76,87.13c0-1.1,0-2.2,0-3.3,0-.28-.01-.56.03-.83.09-.63.61-1.12,1.22-1.11.64,0,1.11.31,1.28.95.07.26.09.54.09.82,0,2.12,0,4.24,0,6.37,0,1.33-.47,1.8-1.79,1.8-2.19,0-4.38.01-6.58,0-1.19,0-1.87-.89-1.46-1.83.25-.58.73-.8,1.34-.8,1.26,0,2.52,0,3.97,0-.28-.29-.44-.47-.61-.64-2.95-2.95-8.54-8.54-11.5-11.5-.11-.11-.23-.22-.34-.34-.62-.67-.67-1.43-.13-1.97.54-.54,1.33-.52,1.97.11,1.11,1.08,4.83,4.82,5.92,5.91,2.13,2.14,4.27,4.27,6.4,6.41.06-.02.11-.04.17-.06Z"/>
    <path class="cls-1" d="M49.08,45.59c0,1.26,0,2.52,0,3.79,0,.64-.24,1.12-.86,1.36-.65.25-1.41-.08-1.64-.74-.09-.28-.12-.59-.13-.88-.01-2.15,0-4.29,0-6.44,0-1.32.47-1.78,1.8-1.79,2.19,0,4.38-.01,6.58,0,1.18,0,1.86.91,1.44,1.84-.26.57-.74.79-1.34.79-1.26,0-2.52,0-3.94,0,.27.29.42.47.59.64,2.97,2.97,27.35,27.35,30.32,30.32.21.21.43.43.58.68.35.56.26,1.11-.18,1.58-.41.44-1.06.51-1.58.17-.25-.16-21.88-21.79-22.09-22-2.96-2.95-5.91-5.9-8.86-8.86-.18-.18-.3-.41-.45-.62-.08.05-.16.1-.24.15Z"/>
    <path class="cls-1" d="M92.88,43.52c-1.39,0-2.58,0-3.78,0-1.03,0-1.63-.48-1.64-1.29-.01-.79.62-1.34,1.6-1.34,2.24,0,4.48-.01,6.72,0,1.1,0,1.62.52,1.62,1.61.01,2.26.02,4.52,0,6.78-.01,1.23-1.08,1.96-1.96,1.31-.34-.25-.6-.82-.63-1.27-.08-1.24-.03-2.49-.03-3.9-.27.24-.45.39-.61.56-2.94,2.94-28.72,28.72-31.66,31.66-.11.11-.23.23-.34.34-.72.69-1.5.75-2.07.16-.54-.57-.48-1.32.21-2.01,3.03-3.04,28.91-28.92,31.95-31.95.17-.17.34-.36.63-.66Z"/>
    <path class="cls-1" d="M102.96,65.03c-.98-.98-1.83-1.82-2.67-2.68-.72-.73-.81-1.49-.25-2.07.55-.57,1.38-.51,2.08.18,1.59,1.58,3.17,3.16,4.75,4.75.77.78.78,1.51,0,2.29-1.59,1.61-3.18,3.21-4.8,4.79-.88.86-2.15.62-2.32-.46-.06-.42.15-1.01.45-1.34.82-.94,1.74-1.78,2.74-2.78-.36-.02-.6-.04-.83-.04-4.15,0-38.9,0-43.05,0-.16,0-.32,0-.48,0-1-.02-1.6-.53-1.58-1.34.02-.78.6-1.27,1.57-1.27,4.29,0,39.18,0,43.47,0,.25,0,.49-.01.92-.02Z"/>
    <path class="cls-1" d="M40.88,67.7c.98.98,1.83,1.82,2.67,2.68.72.73.81,1.49.25,2.07-.55.57-1.38.51-2.08-.18-1.59-1.58-3.17-3.16-4.75-4.75-.77-.78-.78-1.51,0-2.29,1.59-1.61,3.18-3.21,4.8-4.79.88-.86,2.15-.62,2.32.46.06.42-.15,1.01-.45,1.34-.82.94-1.74,1.78-2.74,2.78.36.02.6.04.83.04,4.15,0,12.12,0,16.28,0,.16,0,.32,0,.48,0,1,.02,1.6.53,1.58,1.34-.02.78-.6,1.27-1.57,1.27-4.29,0-12.4,0-16.69,0-.25,0-.49.01-.92.02Z"/>
    <path class="cls-1" d="M70.61,35.39c-.98.98-1.82,1.83-2.68,2.67-.73.72-1.49.81-2.07.25-.57-.55-.51-1.38.18-2.08,1.58-1.59,3.16-3.17,4.75-4.75.78-.77,1.51-.78,2.29,0,1.61,1.59,3.21,3.18,4.79,4.8.86.88.62,2.15-.46,2.32-.42.06-1.01-.15-1.34-.45-.94-.82-1.78-1.74-2.78-2.74-.02.36-.04.6-.04.83,0,4.15,0,30.45,0,34.61,0,.16,0,.32,0,.48-.02,1-.53,1.6-1.34,1.58-.78-.02-1.27-.6-1.27-1.57,0-4.29,0-30.73,0-35.02,0-.25-.01-.49-.02-.92Z"/>
  </g>
</svg>