<?xml version="1.0" encoding="UTF-8"?>
<svg id="Layer_1" xmlns="http://www.w3.org/2000/svg" viewBox="0 0 152 180">
  <defs>
    <style>
      .cls-1, .cls-2 {
        fill: #fff;
      }

      .cls-2 {
        stroke: #80bc00;
        stroke-miterlimit: 10;
        stroke-width: 2px;
      }
    </style>
  </defs>
  <path class="cls-2" d="M135.44,101.68c-3.07-4.25-6.54-9.07-4.91-19.51v-.05c1.77-12.23-.35-25.05-6.15-37.05-5.19-10.74-14.06-19.43-24.98-24.47-20.15-9.29-41.77-8.17-59.33,3.07-17.11,10.95-27.33,29.6-27.33,49.9,0,13.61,4.73,26.89,13.33,37.42,5.38,6.59,8.18,14.66,7.88,22.72-.19,4.94-1.26,9.67-3.19,14.04-1.17,2.49.47,5.66,3.18,6.13,1.15.14,58.01,11.81,59.15,11.78,2.47.06,4.64-2.23,4.42-4.71-.34-5.44.82-8.9,1.71-10.69h8.26c9.82,0,18.39-6.98,20.39-16.59l2.24-10.81c5.72-4.07,8.36-7.28,9-10.87.74-4.18-1.5-7.29-3.67-10.3h0ZM123.65,116.55c-.96.65-1.62,1.64-1.86,2.77l-2.6,12.54c-1.15,5.52-6.07,9.53-11.71,9.53h-10.66c-1.23,0-2.41.52-3.25,1.42-.48.52-4.07,4.66-4.83,13.01l-47.97-9.62c1.19-3.9,1.88-7.97,2.04-12.17.39-10.22-3.12-20.39-9.87-28.66-7.3-8.94-11.33-20.24-11.33-31.81,0-17.26,8.69-33.12,23.24-42.44,14.96-9.58,33.5-10.48,50.85-2.48,9.06,4.18,16.42,11.38,20.71,20.28,5.02,10.4,6.88,21.43,5.36,31.9-2.19,14.02,3.03,21.25,6.48,26.04.83,1.15,2.22,3.08,2.13,3.57-.03.18-.5,1.91-6.73,6.12h0Z"/>
  <path class="cls-1" d="M71.78,28.74c-23.92,0-44.13,18.03-44.13,39.37,0,9.04,1.93,21.08,18.6,21.24.05,0,.1,0,.16,0,6.6,0,12.55-4.01,18.31-7.89,4.74-3.2,9.23-6.21,13.08-6.21,4.79,0,9.11.18,12.93.33,10.37.42,17.22.7,21.09-3.02,1.93-1.86,2.88-4.5,2.88-8.08,0-22.04-16.45-35.74-42.92-35.74ZM61.92,77.32c-1.93,1.3-3.88,2.62-5.83,3.76v-13.01c.25-1.3,5.53-6.36,15.08-6.36,10.38,0,15.08,4.82,15.08,6.29v2.42c-2.63-.09-5.43-.16-8.45-.16-5.38,0-10.48,3.43-15.88,7.07ZM65.62,50.61c0-3.06,2.49-5.56,5.56-5.56s5.56,2.49,5.56,5.56-2.49,5.56-5.56,5.56-5.56-2.49-5.56-5.56ZM108.36,68.96c-2.31,2.21-8.51,1.99-17.11,1.64v-2.61c0-4.15-4.67-8.52-12.19-10.37,1.66-1.87,2.67-4.32,2.67-7.01,0-5.82-4.74-10.56-10.56-10.56s-10.56,4.74-10.56,10.56c0,2.73,1.04,5.23,2.76,7.11-7.6,2.06-12.28,6.84-12.28,10.28v15.37s0,.08.01.11c-1.61.57-3.22.9-4.81.87-9.95-.1-13.65-4.5-13.65-16.24,0-18.31,18.28-34.37,39.13-34.37,18.33,0,37.92,8.08,37.92,30.74,0,2.86-.76,3.93-1.34,4.48Z"/>
</svg>