<?xml version="1.0" encoding="UTF-8"?>
<svg id="Layer_1" xmlns="http://www.w3.org/2000/svg" viewBox="0 0 152 180">
  <defs>
    <style>
      .cls-1, .cls-2 {
        fill: #80bc00;
      }

      .cls-2 {
        stroke: #fff;
        stroke-miterlimit: 10;
        stroke-width: 2px;
      }
    </style>
  </defs>
  <path class="cls-2" d="M135.44,101.68c-3.07-4.25-6.54-9.07-4.91-19.51v-.05c1.77-12.23-.35-25.05-6.15-37.05-5.19-10.74-14.06-19.43-24.98-24.47-20.15-9.29-41.77-8.17-59.33,3.07-17.11,10.95-27.33,29.6-27.33,49.9,0,13.61,4.73,26.89,13.33,37.42,5.38,6.59,8.18,14.66,7.88,22.72-.19,4.94-1.26,9.67-3.19,14.04-1.17,2.49.47,5.66,3.18,6.13,1.15.14,58.01,11.81,59.15,11.78,2.47.06,4.64-2.23,4.42-4.71-.34-5.44.82-8.9,1.71-10.69h8.26c9.82,0,18.39-6.98,20.39-16.59l2.24-10.81c5.72-4.07,8.36-7.28,9-10.87.74-4.18-1.5-7.29-3.67-10.3h0ZM123.65,116.55c-.96.65-1.62,1.64-1.86,2.77l-2.6,12.54c-1.15,5.52-6.07,9.53-11.71,9.53h-10.66c-1.23,0-2.41.52-3.25,1.42-.48.52-4.07,4.66-4.83,13.01l-47.97-9.62c1.19-3.9,1.88-7.97,2.04-12.17.39-10.22-3.12-20.39-9.87-28.66-7.3-8.94-11.33-20.24-11.33-31.81,0-17.26,8.69-33.12,23.24-42.44,14.96-9.58,33.5-10.48,50.85-2.48,9.06,4.18,16.42,11.38,20.71,20.28,5.02,10.4,6.88,21.43,5.36,31.9-2.19,14.02,3.03,21.25,6.48,26.04.83,1.15,2.22,3.08,2.13,3.57-.03.18-.5,1.91-6.73,6.12h0Z"/>
  <g>
    <path class="cls-1" d="M46.41,89.35c-.05,0-.1,0-.16,0-16.67-.16-18.6-12.2-18.6-21.24,0-21.34,20.21-39.37,44.13-39.37,26.47,0,42.92,13.69,42.92,35.74,0,3.58-.94,6.23-2.88,8.08-3.87,3.72-10.72,3.44-21.09,3.02-3.82-.16-8.15-.33-12.93-.33-3.86,0-8.34,3.02-13.08,6.21-5.76,3.88-11.71,7.89-18.31,7.89ZM71.78,33.74c-20.84,0-39.13,16.06-39.13,34.37,0,11.74,3.7,16.15,13.65,16.24,5.13.09,10.45-3.55,15.62-7.03,5.4-3.63,10.49-7.07,15.88-7.07,4.89,0,9.27.18,13.13.33,8.76.35,15.09.61,17.42-1.63.57-.55,1.34-1.62,1.34-4.48,0-22.66-19.59-30.74-37.92-30.74Z"/>
    <path class="cls-1" d="M53.6,85.86c-1.38,0-2.5-1.12-2.5-2.5v-15.37c0-3.44,4.68-8.22,12.28-10.28-1.71-1.88-2.76-4.37-2.76-7.11,0-5.82,4.74-10.56,10.56-10.56s10.56,4.74,10.56,10.56c0,2.69-1.01,5.15-2.67,7.01,7.52,1.85,12.19,6.22,12.19,10.37v4.59c0,1.38-1.12,2.5-2.5,2.5s-2.5-1.12-2.5-2.5v-4.59c0-1.46-4.7-6.29-15.08-6.29-9.55,0-14.83,5.06-15.08,6.36v15.3c0,1.38-1.11,2.5-2.5,2.5ZM71.17,45.05c-3.06,0-5.56,2.49-5.56,5.56s2.49,5.56,5.56,5.56,5.56-2.49,5.56-5.56-2.49-5.56-5.56-5.56Z"/>
  </g>
</svg>