<?xml version="1.0" encoding="UTF-8"?>
<svg id="Layer_1" xmlns="http://www.w3.org/2000/svg" version="1.1" viewBox="0 0 152 180">
  <!-- Generator: Adobe Illustrator 29.8.1, SVG Export Plug-In . SVG Version: 2.1.1 Build 2)  -->
  <defs>
    <style>
      .st0 {
        fill: #fff;
        stroke: #80bc00;
        stroke-miterlimit: 10;
        stroke-width: 2px;
      }
    </style>
  </defs>
  <path class="st0" d="M62.22,72.02v-20.95h1.73c6.9,0,12.52-5.62,12.52-12.52s-5.62-12.52-12.52-12.52h-1.73v-14.62l.05-8.33c-12.3-1.13-24.4,1.72-34.93,8.46C11.36,21.76,1.82,39.19,1.82,58.14c0,4.67.6,9.3,1.75,13.78l8.62.09h6.9c2.28,0,4.14-1.85,4.14-4.14v-5.95c0-2.34,1.91-4.25,4.25-4.25s4.25,1.91,4.25,4.25v5.95c0,2.29,1.85,4.14,4.14,4.14h26.37ZM31.8,18.5c6.77-4.33,14.32-6.76,22.14-7.27v18.92c0,2.29,1.85,4.14,4.14,4.14h5.86c2.34,0,4.25,1.91,4.25,4.25s-1.91,4.25-4.25,4.25h-5.86c-2.28,0-4.14,1.85-4.14,4.14v16.81h-13.96v-1.82c0-6.91-5.62-12.52-12.52-12.52s-12.52,5.62-12.52,12.52v1.82h-4.52c-.22-1.85-.34-3.72-.34-5.6,0-16.12,8.12-30.94,21.71-39.64h0Z"/>
  <path class="st0" d="M92.47,105.02v-8.28s0-12.67,0-12.67h1.73c6.9,0,12.52-5.62,12.52-12.52s-5.62-12.52-12.52-12.52h-1.73v-14.62c5.7.6,11.46,2.19,17.08,4.78,8.47,3.9,15.34,10.63,19.35,18.94h0c4.5,9.32,6.28,19.19,5.16,28.62l-.57,8.28c.23,6.19,2.43,12.23,6.27,17.11.49.72,2.5,2.72,2.14,3.63h0c-.78,2.72-7.63,5.01-7.97,8.14l-2.43,11.71c-1.07,5.16-5.67,8.9-10.94,8.9h-9.96c-1.15,0-2.26.48-3.04,1.33-.45.49-3.8,4.35-4.51,12.16l-10.57-2.12-8.28-1.66-25.96-5.21c1.12-3.64,1.76-7.45,1.9-11.37.36-9.54-2.91-19.05-9.22-26.77h0c-3.84-4.7-6.71-10.1-8.48-15.84h6.9c2.28,0,4.14-1.85,4.14-4.14v-5.95c0-2.34,1.91-4.25,4.25-4.25s4.25,1.91,4.25,4.25v5.95c0,2.29,1.85,4.14,4.14,4.14h26.37M32.35,96.76c1.13,10.64,5.37,21.01,12.16,29.34,5.03,6.16,7.64,13.7,7.36,21.22-.18,4.62-1.18,9.03-2.98,13.11-1.09,2.32.44,5.29,2.97,5.73,1.07.13,54.19,11.03,55.26,11,2.31.05,4.33-2.09,4.13-4.4-.32-5.08.76-8.31,1.59-9.98h7.71c9.17,0,17.18-6.52,19.04-15.5l2.12-10.22,4.52-3.5c2.16-1.67,3.53-4.09,3.87-6.8.33-2.71-.41-5.39-2.1-7.53h0l-1.74-2.22c-2.92-3.71-4.52-8.35-4.52-13.07,0-1.58.12-3.2.35-4.81,1.66-11.43-.33-23.4-5.74-34.61-4.85-10.03-13.13-18.15-23.34-22.86-9.46-4.36-19.28-6.27-28.78-5.75l-.04,8.32v18.92c0,2.29,1.85,4.14,4.14,4.14h5.86c2.34,0,4.25,1.91,4.25,4.25s-1.91,4.25-4.25,4.25h-5.86c-2.28,0-4.14,1.85-4.14,4.14v16.81h-13.96v-1.82c0-6.91-5.62-12.52-12.52-12.52s-12.52,5.62-12.52,12.52v1.82h-4.52l-8.33.02ZM92.47,105.02,141.89,125.75"/>
</svg>