<?xml version="1.0" encoding="UTF-8"?>
<svg id="Layer_1" xmlns="http://www.w3.org/2000/svg" version="1.1" viewBox="0 0 152 180">
  <!-- Generator: Adobe Illustrator 29.8.1, SVG Export Plug-In . SVG Version: 2.1.1 Build 2)  -->
  <defs>
    <style>
      .st0 {
        fill: #fff;
        stroke: #80bc00;
        stroke-miterlimit: 10;
        stroke-width: 2px;
      }
    </style>
  </defs>
  <path class="st0" d="M135.44,101.68c-3.07-4.25-6.54-9.07-4.91-19.51,0-.02,0-.03,0-.05,1.77-12.23-.35-25.05-6.15-37.05-5.19-10.74-14.06-19.43-24.98-24.47-20.15-9.29-41.77-8.17-59.33,3.07-17.11,10.95-27.33,29.6-27.33,49.9,0,13.61,4.73,26.89,13.33,37.42,5.38,6.59,8.18,14.66,7.88,22.72-.19,4.94-1.26,9.67-3.19,14.04-1.17,2.49.47,5.66,3.18,6.13,1.15.14,58.01,11.81,59.15,11.78,2.47.06,4.64-2.23,4.42-4.71-.34-5.44.82-8.9,1.71-10.69h8.26c9.82,0,18.39-6.98,20.39-16.59l2.24-10.81c5.72-4.07,8.36-7.28,9-10.87.74-4.18-1.5-7.29-3.67-10.3h0ZM123.65,116.55c-.96.65-1.62,1.64-1.86,2.77l-2.6,12.54c-1.15,5.52-6.07,9.53-11.71,9.53h-10.66c-1.23,0-2.41.52-3.25,1.42-.48.52-4.07,4.66-4.83,13.01l-47.97-9.62c1.19-3.9,1.88-7.97,2.04-12.17.39-10.22-3.12-20.39-9.87-28.66-7.3-8.94-11.33-20.24-11.33-31.81,0-17.26,8.69-33.12,23.24-42.44,14.96-9.58,33.5-10.48,50.85-2.48,9.06,4.18,16.42,11.38,20.71,20.28,5.02,10.4,6.88,21.43,5.36,31.9-2.19,14.02,3.03,21.25,6.48,26.04.83,1.15,2.22,3.08,2.13,3.57-.03.18-.5,1.91-6.73,6.12h0ZM123.65,116.55"/>
  <path class="st0" d="M66.09,88.34c-2.76,0-5.55-.57-8.22-1.77-8.81-3.97-14.42-8.37-16.74-13.12-.4-.24-.78-.49-1.16-.76-2.9-2.13-6.29-6.48-5.98-15.09.28-7.7,4.27-14.62,10.66-18.49.43-.26.86-.5,1.28-.71,2.54-1.31,5.54-1.24,8.03.17,2.51,1.43,4.11,4.01,4.28,6.9.06.94.34,2.12.83,3.47,2.6-1.31,5.22-2.45,7.79-3.41-1.08-2.43-1.57-4.88-1.21-7.12.32-1.99,1.85-6.68,9.12-7.27,12.6-1.02,29.24,8.44,33.56,19.12,2.31,5.71.91,11.22-3.83,15.11-1.71,1.41-3.39,2.57-5,3.5,2.15,4.32,3.27,9.06,1.94,12.79-1.02,2.85-4.19,7.32-14.05,5.27-2.88-.6-5.74-1.72-8.5-3.22-3.59,2.99-8.13,4.63-12.8,4.63ZM53.81,75.45c2,1.32,4.46,2.65,7.3,3.93,3.59,1.62,7.56,1.35,10.78-.4-2.38-1.92-4.64-4.06-6.74-6.33-4.21,1.47-7.98,2.4-11.33,2.8ZM83.89,77.42c1.69.82,3.4,1.44,5.11,1.79,2.27.47,4.81.58,5.05-.3.46-1.68-.48-4.47-1.91-7.16-2.32.45-4.41.37-6.17-.12-.31,1.74-1.01,3.68-2.09,5.8ZM73.81,70.13c1.11,1.05,2.25,2.06,3.41,2.99.83-1.77,1.02-2.78,1.06-3.25-.54-.12-1.82-.25-4.47.26ZM47.89,67.59c2.93.49,6.97,0,11.87-1.47-1.51-2.06-2.88-4.14-4.07-6.18-.99.65-1.99,1.33-2.99,2.06-2.02,1.46-4.33,3.52-4.81,5.59ZM62.53,55.95c1.46,2.44,3.24,5.03,5.25,7.56,5.38-1.55,9.44-1.97,12.41-1.27.27-1.03.73-2.05,1.4-3.04-.55-.16-1.11-.36-1.67-.6-2.98-1.26-6.06-3.58-8.6-6.38-2.73.92-5.69,2.15-8.8,3.74ZM90.73,58.04c1.41.94,2.96,2.41,4.45,4.2,1.31-.72,2.75-1.68,4.31-2.96,2.1-1.72,2.55-3.54,1.53-6.07-2.79-6.89-15.71-15.01-25.61-14.22-1.36.11-1.88.45-1.94.53-.29.49.07,1.92,1.03,3.67,8.38-1.97,15.47-1.55,18.81,1.84,1.04,1.05,4.07,4.94-.29,10.76-.67.9-1.44,1.64-2.29,2.24ZM49.79,45.33c-.12,0-.2.04-.25.07-.26.13-.52.28-.79.44h0c-4.12,2.5-6.69,7-6.88,12.05-.04,1.13,0,2.41.21,3.65,1.36-2.05,3.36-4.03,5.99-5.93,1.34-.97,2.7-1.89,4.09-2.76-1.05-2.62-1.67-4.99-1.78-6.91-.02-.29-.18-.45-.32-.52-.1-.06-.2-.08-.27-.08ZM80.65,50.01c.1.07.2.14.3.2,1.6,1.06,4.48,2.59,5.76.87.24-.33.41-.59.51-.79-1.12-.49-3.43-.66-6.57-.28ZM46.71,42.47h0,0Z"/>
</svg>